<svg width="282" height="49" viewBox="0 0 282 49" fill="none" xmlns="http://www.w3.org/2000/svg">
<g clip-path="url(#clip0_1_4)">
<path d="M17.0461 0.431854H30.2347V9.82016H16.1898C13.6548 9.82016 11.7326 10.5686 10.4232 12.0654C8.63997 13.5646 7.27536 16.458 6.32933 20.7455C6.13807 21.9753 6.03296 23.2356 6.01595 24.5028C6.01595 28.1434 6.86561 31.5668 8.56494 34.773C9.67722 36.4941 10.7218 37.6332 11.6988 38.1905C12.7699 38.9672 14.2404 39.3556 16.1104 39.3556H30.2347V48.7404H16.7725C13.3311 48.7404 10.7822 48.0698 9.12549 46.7288C5.42229 44.1318 2.76957 39.8822 1.16735 33.9798C0.385274 31.0011 -0.0118972 27.7988 -0.000111396 24.5666C-0.000111396 17.3752 1.77572 11.2367 5.32739 6.15125C7.65201 3.32047 9.75447 1.64892 11.6348 1.1366C12.597 0.66913 14.4008 0.434215 17.0461 0.431854ZM14.4971 19.9416H30.2347V29.2271H14.4971V19.9416Z" fill="white"/>
<path d="M49.9359 22.803V29.7938H34.6641V22.803H49.9359Z" fill="white"/>
<path d="M51.2181 0.467255H67.973C74.0435 0.467255 78.2565 4.72404 80.612 13.2376C81.1901 15.6779 81.4804 18.2695 81.4683 20.88C81.4683 26.5464 80.0897 31.5043 77.3325 35.754C75.6332 38.1669 73.5506 39.7982 71.0848 40.6481C70.1301 40.864 69.1666 40.9647 68.2025 40.9493L57.2562 41.1512V48.7262H51.1761V31.6069H67.728C69.8879 31.6069 71.4688 30.9589 72.4707 29.6628C73.7522 28.3453 74.6717 26.2204 75.2294 23.2881C75.3261 22.6162 75.3815 21.9305 75.3949 21.2412V20.232C75.3949 17.7057 74.7196 15.248 73.3689 12.8587C71.9624 10.8731 70.4028 9.87917 68.6903 9.87681H51.2181V0.467255Z" fill="white"/>
<path d="M84.5977 0.467255H90.6556V23.2952C90.6556 29.6863 92.1806 34.3339 95.2306 37.2378C96.568 38.6544 98.3438 39.3627 100.558 39.3627H114.888V48.7475H100.763C96.938 48.7475 93.8807 47.4619 91.5914 44.8908C90.9543 44.3714 89.9965 43.1165 88.718 41.1264C87.0613 38.1327 85.9402 35.1165 85.3546 32.078C84.8544 29.7761 84.6035 26.479 84.6021 22.1869L84.5977 0.467255Z" fill="white"/>
<path d="M134.401 0.399994H148.305V48.7368H142.273V9.82017L136.884 9.85204H135.589C132.58 9.85204 130.908 10.0539 130.574 10.4576C128.752 11.2646 127.148 13.0212 126.015 15.451C124.678 18.5202 124.009 21.5706 124.009 24.6021C124.009 28.3559 124.914 31.8088 126.726 34.9607C127.938 36.8165 128.983 37.9331 129.859 38.3109C130.742 39.0192 132.253 39.3733 134.392 39.3733H138.586V48.7262H133.563C129.83 48.7262 126.676 47.1503 124.099 43.9984C122.234 41.6374 120.988 39.4926 120.361 37.5636C118.8 33.5877 118.02 29.5212 118.021 25.3634V23.947C118.021 18.139 119.379 12.8091 122.095 7.95738C123.737 5.40284 125.081 3.78913 126.125 3.11627C127.116 2.29581 128.16 1.65443 129.239 1.2039C130.422 0.667962 132.143 0.399994 134.401 0.399994Z" fill="white"/>
<path d="M163.623 48.7368V40.8252C161.197 39.784 158.929 37.9584 156.958 35.46C155.302 33.0707 154.222 31.0816 153.721 29.4928C153.024 27.6969 152.483 25.7573 152.112 23.7273C151.67 21.4939 151.45 18.4541 151.45 14.6082V0.467255H157.508V15.0473C157.508 19.297 158.023 22.5716 159.053 24.8712C159.26 25.6078 159.928 26.7811 161.056 28.3914C162.616 30.4499 164.573 31.5753 166.592 31.5753C168.612 31.5753 170.569 30.4499 172.129 28.3914C173.257 26.7789 173.926 25.6054 174.135 24.8712C175.165 22.5692 175.679 19.2947 175.679 15.0473V0.467255H181.737V14.6117C181.737 18.4577 181.517 21.4974 181.075 23.7309C180.718 25.7686 180.176 27.7111 179.467 29.4964C178.966 31.0828 177.894 33.072 176.251 35.4635C174.271 37.9558 171.997 39.7795 169.566 40.8252V48.7368H163.623Z" fill="white"/>
<path d="M201.911 0.431854H215.093V9.82015H201.05C198.517 9.82015 196.595 10.5686 195.286 12.0654C193.503 13.5646 192.138 16.458 191.192 20.7455C191.001 21.9753 190.896 23.2356 190.879 24.5028C190.879 28.1434 191.727 31.5668 193.425 34.773C194.539 36.4941 195.584 37.6332 196.559 38.1905C197.632 38.972 199.103 39.3638 200.973 39.3663H215.097V48.751H201.635C198.197 48.751 195.648 48.0804 193.99 46.7394C190.286 44.1424 187.633 39.8926 186.032 33.9904C185.248 31.0103 184.85 27.805 184.862 24.5702C184.862 17.3788 186.638 11.2403 190.188 6.15478C192.517 3.32165 194.621 1.64892 196.502 1.1366C197.463 0.66913 199.266 0.434215 201.911 0.431854ZM199.364 19.9416H215.093V29.2271H199.364V19.9416Z" fill="white"/>
<path d="M218.288 0.431854H237.632C241.051 0.431854 243.725 2.0739 245.654 5.35797C246.401 6.40746 247.012 7.68311 247.451 9.11187C248.167 11.2986 248.553 13.7247 248.578 16.1947V17.5688C248.578 21.1102 247.622 24.5631 245.709 27.9275C244.484 29.8162 243.37 31.0227 242.368 31.5468C244.902 35.8862 246.168 41.6186 246.168 48.7439H240.091V48.0073C240.091 42.7329 238.761 38.5423 236.101 35.4352C234.582 33.7141 232.596 32.8535 230.142 32.8535H218.288V23.529H238.007C240.166 23.529 241.628 21.8197 242.395 18.401C242.479 17.6927 242.534 17.1262 242.562 16.6586C242.562 14.7581 242.068 13.037 241.079 11.4952C240.316 10.4731 239.357 9.90519 238.363 9.88745C238.363 9.79891 238.071 9.75286 237.48 9.75286H218.28L218.288 0.431854Z" fill="white"/>
<path d="M261.279 0.467262H281.561V10.3832H261.089C259.49 10.3832 258.509 11.6452 258.145 14.169V14.8773C258.145 16.3741 258.668 17.6255 259.712 18.6312C260.031 18.8323 260.371 18.9344 260.714 18.9322H271.009C273.658 18.9322 275.454 19.3678 276.399 20.239C278.74 21.9176 280.358 24.4769 281.254 27.9169C281.739 29.8927 281.994 31.9944 282.007 34.1178C282.007 38.9436 280.6 43.0104 277.787 46.3181C276.894 47.2068 275.922 47.8743 274.905 48.2976C274.097 48.5881 272.753 48.7333 270.873 48.7333H251.739L251.717 38.8173H272.272C273.999 38.8173 275.103 37.4539 275.582 34.7269L275.624 33.8239C275.624 31.8997 275.036 30.4241 273.859 29.3971C273.357 29.0122 272.805 28.8287 272.25 28.8623H260.699C257.677 28.8623 255.156 26.7374 253.138 22.4878C252.295 20.3491 251.837 17.8784 251.814 15.3483V14.038C251.814 9.08 253.318 5.15846 256.327 2.27338C257.567 1.06694 259.218 0.464901 261.279 0.467262Z" fill="white"/>
</g>
<defs>
<clipPath id="clip0_1_4">
<rect width="282" height="48.3368" fill="white" transform="translate(0 0.399994)"/>
</clipPath>
</defs>
</svg>
